<svg xmlns="http://www.w3.org/2000/svg" viewBox="0 0 259.0 64" fill="none">
  <rect width="64" height="64" rx="16" fill="#4D73D6"/>
  <g transform="scale(2)">
    <rect x="9" y="6" width="14" height="20" rx="2.5" fill="#0E1218"/>
    <rect x="11" y="8.5" width="10" height="13" rx="1.2" fill="#95E3B6"/>
    <rect x="12.2" y="10" width="7.6" height="1.4" rx="0.5" fill="#0E1218" opacity="0.25"/>
    <rect x="12.2" y="13" width="7.6" height="1.4" rx="0.5" fill="#0E1218" opacity="0.25"/>
    <rect x="12.2" y="16" width="7.6" height="1.4" rx="0.5" fill="#0E1218" opacity="0.25"/>
    <rect x="12" y="23" width="8" height="1.6" rx="0.6" fill="#F3F4F0"/>
  </g>
  <path d="M83.773 15.537500000000001V13.211H87.359Q88.459 13.211 89.064 12.64725Q89.669 12.0835 89.669 11.0935Q89.669 10.186 89.07225 9.581Q88.4755 8.976 87.3755 8.976H83.773V6.534000000000001H87.634Q89.13 6.534000000000001 90.263 7.119750000000001Q91.396 7.705500000000001 92.02575 8.72025Q92.6555 9.735000000000001 92.6555 11.044Q92.6555 12.4025 92.023 13.409Q91.3905 14.415500000000002 90.2465 14.976500000000001Q89.10249999999999 15.537500000000001 87.579 15.537500000000001ZM81.5785 22.0V6.534000000000001H84.576V22.0ZM90.0265 22.0 84.917 15.312000000000001 87.6725 14.454 93.6675 22.0Z" fill="#95E3B6"/>
  <path d="M98.8585 22.0V6.534000000000001H101.856V22.0Z" fill="#95E3B6"/>
  <path d="M113.1795 22.0 107.0745 6.534000000000001H110.303L115.011 19.052H113.768L118.5255 6.534000000000001H121.7045L115.5445 22.0Z" fill="#95E3B6"/>
  <path d="M126.9285 22.0V6.534000000000001H129.926V22.0ZM129.123 22.0V19.3545H137.692V22.0ZM129.123 15.383500000000002V12.826H136.92749999999998V15.383500000000002ZM129.123 9.1795V6.534000000000001H137.57649999999998V9.1795Z" fill="#95E3B6"/>
  <path d="M145.56699999999998 15.537500000000001V13.211H149.153Q150.253 13.211 150.858 12.64725Q151.463 12.0835 151.463 11.0935Q151.463 10.186 150.86624999999998 9.581Q150.2695 8.976 149.16949999999997 8.976H145.56699999999998V6.534000000000001H149.42799999999997Q150.92399999999998 6.534000000000001 152.05699999999996 7.119750000000001Q153.18999999999997 7.705500000000001 153.81974999999997 8.72025Q154.44949999999997 9.735000000000001 154.44949999999997 11.044Q154.44949999999997 12.4025 153.81699999999998 13.409Q153.18449999999999 14.415500000000002 152.04049999999998 14.976500000000001Q150.89649999999997 15.537500000000001 149.373 15.537500000000001ZM143.37249999999997 22.0V6.534000000000001H146.36999999999998V22.0ZM151.82049999999998 22.0 146.71099999999998 15.312000000000001 149.4665 14.454 155.46149999999997 22.0Z" fill="#95E3B6"/>
  <path d="M178.2955 22.231Q176.5905 22.231 175.1385 21.626Q173.6865 21.021 172.603 19.92925Q171.5195 18.8375 170.92825 17.3855Q170.337 15.9335 170.337 14.261500000000002Q170.337 12.584000000000001 170.92825 11.13475Q171.5195 9.685500000000001 172.60025 8.607500000000002Q173.68099999999998 7.5295000000000005 175.13025 6.916250000000001Q176.5795 6.303000000000001 178.28449999999998 6.303000000000001Q180.1435 6.303000000000001 181.546 6.908000000000001Q182.9485 7.513000000000002 184.021 8.558000000000002L182.0025 10.582Q181.35899999999998 9.878 180.435 9.482Q179.511 9.086 178.28449999999998 9.086Q177.2065 9.086 176.31275 9.4545Q175.41899999999998 9.823 174.76725 10.51325Q174.1155 11.2035 173.76075 12.15775Q173.406 13.112 173.406 14.261500000000002Q173.406 15.4165 173.76075 16.37075Q174.1155 17.325 174.76725 18.01525Q175.41899999999998 18.7055 176.31275 19.07675Q177.2065 19.448 178.28449999999998 19.448Q179.588 19.448 180.51749999999998 19.04925Q181.447 18.6505 182.1015 17.941L184.1255 19.965Q183.042 21.0265 181.60649999999998 21.62875Q180.171 22.231 178.2955 22.231Z" fill="#95E3B6"/>
  <path d="M189.40449999999998 22.0V6.534000000000001H192.402V22.0Z" fill="#95E3B6"/>
  <path d="M202.60349999999997 22.0V6.864000000000001H205.60099999999997V22.0ZM197.67 9.201500000000001V6.534000000000001H210.53999999999996V9.201500000000001Z" fill="#95E3B6"/>
  <path d="M220.60399999999998 16.0325 214.60899999999998 6.534000000000001H218.0685L222.7105 14.157H220.7415L225.3835 6.534000000000001H228.7825L222.74349999999998 16.0325ZM220.21349999999998 22.0V14.443000000000001H223.21099999999998V22.0Z" fill="#95E3B6"/>
  <path d="M82.128 52.0V32.4H84.368L92.516 45.812H91.06L99.208 32.4H101.44800000000001V52.0H98.22800000000001V38.056L98.956 38.251999999999995L92.908 48.192H90.668L84.62 38.251999999999995L85.348 38.056V52.0Z" fill="#FFFFFF"/>
  <path d="M105.312 52.0V38.56H108.392V52.0ZM106.85199999999999 36.096000000000004Q106.068 36.096000000000004 105.55 35.564Q105.032 35.032 105.032 34.248000000000005Q105.032 33.464 105.55 32.932Q106.068 32.4 106.85199999999999 32.4Q107.66399999999999 32.4 108.16799999999999 32.932Q108.672 33.464 108.672 34.248000000000005Q108.672 35.032 108.16799999999999 35.564Q107.66399999999999 36.096000000000004 106.85199999999999 36.096000000000004Z" fill="#FFFFFF"/>
  <path d="M118.024 52.28Q116.036 52.28 114.426 51.356Q112.816 50.432 111.892 48.836Q110.968 47.24 110.968 45.28Q110.968 43.292 111.892 41.71Q112.816 40.128 114.426 39.204Q116.036 38.28 118.024 38.28Q119.592 38.28 120.94999999999999 38.882000000000005Q122.30799999999999 39.484 123.26 40.604L121.244 42.647999999999996Q120.656 41.948 119.83000000000001 41.598Q119.004 41.248 118.024 41.248Q116.876 41.248 115.994 41.766Q115.112 42.284 114.622 43.18Q114.132 44.076 114.132 45.28Q114.132 46.456 114.622 47.366Q115.112 48.275999999999996 115.994 48.794Q116.876 49.312 118.024 49.312Q119.004 49.312 119.83000000000001 48.962Q120.656 48.612 121.244 47.912L123.26 49.956Q122.30799999999999 51.076 120.94999999999999 51.678Q119.592 52.28 118.024 52.28Z" fill="#FFFFFF"/>
  <path d="M125.472 52.0V38.56H128.552V52.0ZM128.552 44.524 127.488 43.992Q127.488 41.444 128.622 39.862Q129.756 38.28 132.052 38.28Q133.06 38.28 133.872 38.644Q134.684 39.007999999999996 135.384 39.82L133.368 41.891999999999996Q133.004 41.5 132.55599999999998 41.332Q132.108 41.164 131.51999999999998 41.164Q130.232 41.164 129.392 41.976Q128.552 42.788 128.552 44.524Z" fill="#FFFFFF"/>
  <path d="M143.53199999999998 52.28Q141.57199999999997 52.28 139.976 51.342Q138.38 50.403999999999996 137.442 48.808Q136.504 47.212 136.504 45.252Q136.504 43.292 137.442 41.724000000000004Q138.38 40.156 139.976 39.218Q141.57199999999997 38.28 143.53199999999998 38.28Q145.51999999999998 38.28 147.11599999999999 39.204Q148.712 40.128 149.64999999999998 41.71Q150.588 43.292 150.588 45.252Q150.588 47.212 149.64999999999998 48.808Q148.712 50.403999999999996 147.11599999999999 51.342Q145.51999999999998 52.28 143.53199999999998 52.28ZM143.53199999999998 49.312Q144.67999999999998 49.312 145.56199999999998 48.794Q146.444 48.275999999999996 146.93399999999997 47.352Q147.42399999999998 46.428 147.42399999999998 45.252Q147.42399999999998 44.076 146.92 43.18Q146.416 42.284 145.548 41.766Q144.67999999999998 41.248 143.53199999999998 41.248Q142.41199999999998 41.248 141.52999999999997 41.766Q140.648 42.284 140.158 43.18Q139.66799999999998 44.076 139.66799999999998 45.252Q139.66799999999998 46.428 140.158 47.352Q140.648 48.275999999999996 141.52999999999997 48.794Q142.41199999999998 49.312 143.53199999999998 49.312Z" fill="#FFFFFF"/>
  <path d="M153.55599999999998 52.0V32.4H155.796L163.944 45.812H162.488L170.636 32.4H172.876V52.0H169.656V38.056L170.384 38.251999999999995L164.33599999999998 48.192H162.096L156.048 38.251999999999995L156.776 38.056V52.0Z" fill="#FFFFFF"/>
  <path d="M182.34 52.28Q180.51999999999998 52.28 179.04999999999998 51.356Q177.57999999999998 50.432 176.726 48.85Q175.87199999999999 47.268 175.87199999999999 45.308Q175.87199999999999 43.32 176.726 41.738Q177.57999999999998 40.156 179.04999999999998 39.218Q180.51999999999998 38.28 182.34 38.28Q183.88 38.28 185.07 38.938Q186.26 39.596000000000004 186.95999999999998 40.744Q187.66 41.891999999999996 187.66 43.348V47.212Q187.66 48.668 186.974 49.816Q186.28799999999998 50.964 185.084 51.622Q183.88 52.28 182.34 52.28ZM182.844 49.368Q184.552 49.368 185.60199999999998 48.22Q186.652 47.072 186.652 45.28Q186.652 44.076 186.176 43.152Q185.7 42.228 184.846 41.71Q183.992 41.192 182.844 41.192Q181.724 41.192 180.87 41.71Q180.016 42.228 179.526 43.152Q179.036 44.076 179.036 45.28Q179.036 46.484 179.526 47.408Q180.016 48.332 180.87 48.85Q181.724 49.368 182.844 49.368ZM186.456 52.0V48.388L186.988 45.112L186.456 41.864V38.56H189.536V52.0Z" fill="#FFFFFF"/>
  <path d="M192.952 52.0V38.56H196.032V52.0ZM196.032 44.524 194.968 43.992Q194.968 41.444 196.10199999999998 39.862Q197.236 38.28 199.532 38.28Q200.54 38.28 201.35199999999998 38.644Q202.164 39.007999999999996 202.864 39.82L200.848 41.891999999999996Q200.484 41.5 200.036 41.332Q199.588 41.164 199.0 41.164Q197.712 41.164 196.872 41.976Q196.032 42.788 196.032 44.524Z" fill="#FFFFFF"/>
  <path d="M213.392 52.0 207.708 45.14 213.364 38.56H217.032L210.536 45.952L210.67600000000002 44.188L217.312 52.0ZM204.852 52.0V31.84H207.93200000000002V52.0Z" fill="#FFFFFF"/>
  <path d="M225.404 52.28Q223.388 52.28 221.77800000000002 51.370000000000005Q220.168 50.46 219.23000000000002 48.864000000000004Q218.292 47.268 218.292 45.28Q218.292 43.292 219.216 41.71Q220.14 40.128 221.72199999999998 39.204Q223.304 38.28 225.236 38.28Q227.112 38.28 228.554 39.147999999999996Q229.996 40.016 230.822 41.528Q231.648 43.04 231.648 44.972Q231.648 45.308 231.606 45.658Q231.564 46.008 231.48 46.428H220.448V43.908H229.884L228.736 44.916Q228.68 43.684 228.26 42.843999999999994Q227.84 42.004 227.07 41.556Q226.3 41.108000000000004 225.18 41.108000000000004Q224.004 41.108000000000004 223.136 41.612Q222.268 42.116 221.792 43.025999999999996Q221.316 43.936 221.316 45.196Q221.316 46.456 221.82 47.408Q222.324 48.36 223.248 48.878Q224.172 49.396 225.376 49.396Q226.412 49.396 227.29399999999998 49.032Q228.176 48.668 228.792 47.968L230.752 49.956Q229.772 51.104 228.372 51.692Q226.972 52.28 225.404 52.28Z" fill="#FFFFFF"/>
  <path d="M236.156 52.0V32.96H239.236V52.0ZM232.936 41.36V38.56H242.456V41.36Z" fill="#FFFFFF"/>
  <path d="M249.092 52.28Q247.972 52.28 246.936 51.986000000000004Q245.9 51.692 245.03199999999998 51.146Q244.164 50.6 243.52 49.816L245.48 47.856Q246.18 48.668 247.09 49.074Q248.0 49.48 249.148 49.48Q250.184 49.48 250.716 49.172Q251.248 48.864 251.248 48.275999999999996Q251.248 47.66 250.744 47.324Q250.24 46.988 249.442 46.75Q248.644 46.512 247.762 46.260000000000005Q246.88 46.008 246.082 45.574Q245.284 45.14 244.78 44.384Q244.276 43.628 244.276 42.424Q244.276 41.135999999999996 244.878 40.211999999999996Q245.48 39.288 246.586 38.784Q247.692 38.28 249.232 38.28Q250.856 38.28 252.102 38.854Q253.348 39.428 254.188 40.576L252.228 42.536Q251.64 41.808 250.884 41.444Q250.128 41.08 249.148 41.08Q248.224 41.08 247.72 41.36Q247.216 41.64 247.216 42.172Q247.216 42.732 247.72 43.04Q248.224 43.348 249.022 43.572Q249.82 43.796 250.702 44.062Q251.584 44.328 252.382 44.790000000000006Q253.18 45.252 253.684 46.022000000000006Q254.188 46.792 254.188 48.024Q254.188 49.984 252.81599999999997 51.132000000000005Q251.444 52.28 249.092 52.28Z" fill="#FFFFFF"/>
</svg>
